<svg xmlns="http://www.w3.org/2000/svg" viewBox="0 0 560 360" font-family="-apple-system,Segoe UI,Helvetica,Arial,sans-serif">
  <rect x="0" y="0" width="560" height="360" rx="8" fill="#ffffff"/>
  <line x1="60" y1="310.0" x2="540" y2="310.0" stroke="#888"/>
  <line x1="300.0" y1="20" x2="300.0" y2="310" stroke="#888"/>
  <line x1="108.0" y1="310.0" x2="108.0" y2="314.0" stroke="#555"/><text x="108.0" y="328.0" font-size="12" fill="#333" text-anchor="middle">-2</text><line x1="204.0" y1="310.0" x2="204.0" y2="314.0" stroke="#555"/><text x="204.0" y="328.0" font-size="12" fill="#333" text-anchor="middle">-1</text><line x1="300.0" y1="310.0" x2="300.0" y2="314.0" stroke="#555"/><text x="300.0" y="328.0" font-size="12" fill="#333" text-anchor="middle">0</text><line x1="396.0" y1="310.0" x2="396.0" y2="314.0" stroke="#555"/><text x="396.0" y="328.0" font-size="12" fill="#333" text-anchor="middle">1</text><line x1="492.0" y1="310.0" x2="492.0" y2="314.0" stroke="#555"/><text x="492.0" y="328.0" font-size="12" fill="#333" text-anchor="middle">2</text>
  <line x1="56.0" y1="310.0" x2="60.0" y2="310.0" stroke="#555"/><text x="52.0" y="314.0" font-size="12" fill="#333" text-anchor="end">0</text><line x1="56.0" y1="252.0" x2="60.0" y2="252.0" stroke="#555"/><text x="52.0" y="256.0" font-size="12" fill="#333" text-anchor="end">3</text><line x1="56.0" y1="194.0" x2="60.0" y2="194.0" stroke="#555"/><text x="52.0" y="198.0" font-size="12" fill="#333" text-anchor="end">6</text><line x1="56.0" y1="136.0" x2="60.0" y2="136.0" stroke="#555"/><text x="52.0" y="140.0" font-size="12" fill="#333" text-anchor="end">9</text><line x1="56.0" y1="78.0" x2="60.0" y2="78.0" stroke="#555"/><text x="52.0" y="82.0" font-size="12" fill="#333" text-anchor="end">12</text><line x1="56.0" y1="20.0" x2="60.0" y2="20.0" stroke="#555"/><text x="52.0" y="24.0" font-size="12" fill="#333" text-anchor="end">15</text>
  <polyline points="88.8,29.3 92.6,39.4 96.5,49.3 100.3,59.1 104.2,68.6 108.0,78.0 111.8,87.2 115.7,96.2 119.5,105.0 123.4,113.6 127.2,122.1 131.0,130.3 134.9,138.4 138.7,146.3 142.6,154.0 146.4,161.5 150.2,168.9 154.1,176.0 157.9,183.0 161.8,189.7 165.6,196.3 169.4,202.7 173.3,208.9 177.1,215.0 181.0,220.8 184.8,226.5 188.6,232.0 192.5,237.2 196.3,242.3 200.2,247.3 204.0,252.0 207.8,256.5 211.7,260.9 215.5,265.1 219.4,269.1 223.2,272.9 227.0,276.5 230.9,279.9 234.7,283.2 238.6,286.2 242.4,289.1 246.2,291.8 250.1,294.3 253.9,296.6 257.8,298.8 261.6,300.7 265.4,302.5 269.3,304.1 273.1,305.5 277.0,306.7 280.8,307.7 284.6,308.5 288.5,309.2 292.3,309.6 296.2,309.9 300.0,310.0 303.8,309.9 307.7,309.6 311.5,309.2 315.4,308.5 319.2,307.7 323.0,306.7 326.9,305.5 330.7,304.1 334.6,302.5 338.4,300.7 342.2,298.8 346.1,296.6 349.9,294.3 353.8,291.8 357.6,289.1 361.4,286.2 365.3,283.2 369.1,279.9 373.0,276.5 376.8,272.9 380.6,269.1 384.5,265.1 388.3,260.9 392.2,256.5 396.0,252.0 399.8,247.3 403.7,242.3 407.5,237.2 411.4,232.0 415.2,226.5 419.0,220.8 422.9,215.0 426.7,208.9 430.6,202.7 434.4,196.3 438.2,189.7 442.1,183.0 445.9,176.0 449.8,168.9 453.6,161.5 457.4,154.0 461.3,146.3 465.1,138.4 469.0,130.3 472.8,122.1 476.6,113.6 480.5,105.0 484.3,96.2 488.2,87.2 492.0,78.0 495.8,68.6 499.7,59.1 503.5,49.3 507.4,39.4 511.2,29.3" fill="none" stroke="#1f6feb" stroke-width="2.5"/>
  <line x1="420.0" y1="252.0" x2="516.0" y2="20.0" stroke="#e8590c" stroke-width="2" stroke-dasharray="6 4"/>
  <circle cx="492.0" cy="78.0" r="4.5" fill="#e8590c"/>
  <text x="146.4" y="58.7" font-size="15" fill="#1f6feb" font-weight="bold">f(x) = 3x&#178;</text>
  <text x="486.0" y="68.0" font-size="12" fill="#333" text-anchor="end">(2, 12)</text>
  <text x="314.4" y="49.0" font-size="13" fill="#e8590c">slope = f&#8242;(2) = 12</text>
  <text x="540.0" y="328.0" font-size="12" fill="#333" text-anchor="end">x</text>
</svg>